<svg width="29" height="29" viewBox="0 0 29 29" fill="none" xmlns="http://www.w3.org/2000/svg">
<path d="M15.1553 28.6162L15.0957 28.6582L15.0371 28.6162L15.0518 28.2441L15.0654 28.249L15.0889 28.2559L15.1133 28.251L15.1367 28.2461L15.1406 28.2441L15.1553 28.6162ZM15.4951 28.6211L15.4014 28.5781L15.3838 28.1494L15.4668 28.1074L15.4951 28.6211ZM14.8086 28.1484L14.79 28.5771L14.6973 28.6201L14.7256 28.1074L14.8086 28.1484Z" stroke="white" stroke-width="0.2"/>
<path d="M11.0991 6.61499C11.7913 4.59074 14.5879 4.52661 15.4116 6.42554V6.42651L15.4839 6.61987L16.4585 9.46851C16.6866 10.1358 17.0545 10.7467 17.5386 11.2595C18.0228 11.7725 18.6119 12.176 19.2651 12.4421L19.2681 12.4431L19.5298 12.5408L19.5327 12.5417L22.3843 13.5154C24.3476 14.1863 24.4675 16.8365 22.7427 17.7478L22.5708 17.8298L22.3843 17.9001L19.5327 18.8748C18.865 19.1027 18.2539 19.4716 17.7407 19.9558C17.2276 20.44 16.8244 21.029 16.5581 21.6824L16.5571 21.6843L16.4595 21.946L16.4585 21.949L15.4839 24.8015C14.7913 26.8279 11.9903 26.8897 11.1704 24.9871L11.0991 24.8015L10.1245 21.95C9.89661 21.2823 9.52854 20.6711 9.04443 20.158C8.56026 19.6449 7.97117 19.2416 7.31787 18.9753L7.31494 18.9744L7.0542 18.8757L7.05127 18.8748L4.19971 17.9011C2.17333 17.2091 2.10938 14.4107 4.00928 13.5886L4.01025 13.5896L4.20264 13.5134L7.05127 12.5417C7.71874 12.3137 8.32935 11.9449 8.84229 11.4607C9.29115 11.037 9.65598 10.5333 9.91846 9.97632L10.0249 9.73511L10.0259 9.73218L10.1235 9.47144L10.1245 9.46851L11.0991 6.61499ZM13.1968 7.33179L12.2231 10.1833C11.8876 11.1667 11.3417 12.0653 10.6235 12.8162C9.99509 13.4732 9.24749 14.0034 8.42236 14.3796L8.06396 14.531L7.76611 14.6394L4.91455 15.614L4.63721 15.7087L4.91455 15.8035L7.76611 16.7771C8.74953 17.1127 9.64799 17.6585 10.3989 18.3767C11.0561 19.0052 11.5862 19.7527 11.9624 20.5779L12.1147 20.9363L12.2231 21.2351L13.1968 24.0857L13.2915 24.363L13.3862 24.0857L14.3599 21.2341C14.6954 20.2506 15.2412 19.3513 15.9595 18.6003C16.6776 17.8495 17.5507 17.2635 18.5181 16.8845L18.8179 16.7771L21.6685 15.8035L21.9458 15.7087L21.6685 15.614L18.8169 14.6394C17.8334 14.3038 16.935 13.758 16.1841 13.0398C15.5271 12.4114 14.9968 11.6646 14.6206 10.8396L14.4683 10.4812L14.3599 10.1814L13.3862 7.33179L13.2915 7.05444L13.1968 7.33179ZM22.9585 2.51636C23.1656 2.51643 23.3687 2.57477 23.5444 2.68433C23.7192 2.7933 23.8604 2.94901 23.9517 3.13354L24.0083 3.27319L24.4292 4.50659L24.4458 4.55347L24.4917 4.56909L25.7329 4.99194C25.9407 5.06254 26.1229 5.19369 26.2563 5.36792C26.3896 5.54202 26.4688 5.75165 26.4829 5.97046C26.4969 6.18941 26.4446 6.40764 26.3345 6.59741C26.2249 6.78617 26.0623 6.93833 25.8667 7.03491L25.7261 7.09253L24.4927 7.51343L24.4468 7.52905L24.4302 7.57593L24.0073 8.81616C23.9366 9.02379 23.8065 9.20629 23.6323 9.3396C23.4581 9.47289 23.2478 9.55127 23.0288 9.56519C22.8099 9.57907 22.5916 9.52791 22.4019 9.41772C22.2129 9.30795 22.0598 9.14501 21.9634 8.94897L21.9077 8.8103L21.4868 7.5769L21.4712 7.53003L21.4243 7.5144L20.1831 7.09155C19.9754 7.02095 19.7931 6.88977 19.6597 6.71558C19.5264 6.5415 19.4481 6.33179 19.4341 6.11304C19.4201 5.89411 19.4715 5.67584 19.5815 5.48608C19.691 5.2975 19.8529 5.1442 20.0483 5.04761L20.189 4.99097L20.188 4.98999L21.4233 4.57007L21.4692 4.55444L21.4858 4.50757L21.9087 3.26733C21.9834 3.04836 22.1248 2.85795 22.313 2.72339C22.5012 2.5889 22.7272 2.51622 22.9585 2.51636Z" fill="#555555" stroke="white" stroke-width="0.2"/>
</svg>
