<svg width="69" height="45" viewBox="0 0 69 45" fill="none" xmlns="http://www.w3.org/2000/svg">
<path d="M59.0936 0H19.8799C14.4843 0 10.1104 3.69277 10.1104 8.24803V36.0981C10.1104 40.6534 14.4843 44.3461 19.8799 44.3461H59.0936C64.4892 44.3461 68.8632 40.6534 68.8632 36.0981V8.24803C68.8632 3.69277 64.4892 0 59.0936 0Z" fill="#F19469"/>
<path d="M10.4182 30.2705C10.4182 30.2705 10.4551 41.0844 0.931641 44.5435C0.931641 44.5435 10.1106 45.5616 23.6084 38.7886L10.4182 30.2705Z" fill="#F19469"/>
<path d="M46.6424 26.2086C40.6257 26.2086 35.2118 23.1441 32.9232 18.4488L31.582 15.7064C30.6838 13.8677 32.2834 11.842 34.6458 11.842H58.7498C61.1492 11.842 62.761 13.93 61.7767 15.7791L60.1771 18.7916C57.7901 23.2999 52.487 26.2086 46.6301 26.2086H46.6424Z" fill="black"/>
<path d="M40.6382 11.842H47.221V14.9584C47.221 16.4958 45.7445 17.732 43.9357 17.732C42.1147 17.732 40.6505 16.4855 40.6505 14.9584V11.842H40.6382Z" fill="white"/>
<path d="M48.4512 11.842H55.0339V14.9584C55.0339 16.4958 53.5574 17.732 51.7487 17.732C49.9277 17.732 48.4635 16.4855 48.4635 14.9584V11.842H48.4512Z" fill="white"/>
<path d="M42.2124 8.74641C42.9259 8.74641 43.5043 8.25807 43.5043 7.65568C43.5043 7.05328 42.9259 6.56494 42.2124 6.56494C41.4988 6.56494 40.9204 7.05328 40.9204 7.65568C40.9204 8.25807 41.4988 8.74641 42.2124 8.74641Z" fill="black"/>
<path d="M52.5112 8.74641C53.2247 8.74641 53.8031 8.25807 53.8031 7.65568C53.8031 7.05328 53.2247 6.56494 52.5112 6.56494C51.7977 6.56494 51.2192 7.05328 51.2192 7.65568C51.2192 8.25807 51.7977 8.74641 52.5112 8.74641Z" fill="black"/>
</svg>
