<svg width="16" height="17" viewBox="0 0 16 17" fill="none" xmlns="http://www.w3.org/2000/svg">
<path d="M6.67778 15H2.55556C2.143 15 1.74733 14.8361 1.45561 14.5444C1.16389 14.2527 1 13.857 1 13.4444V2.55556C1 2.143 1.16389 1.74733 1.45561 1.45561C1.74733 1.16389 2.143 1 2.55556 1H13.4444C13.857 1 14.2527 1.16389 14.5444 1.45561C14.8361 1.74733 15 2.143 15 2.55556V10.3333L12.5889 7.92222C12.2962 7.63536 11.9021 7.47559 11.4923 7.47763C11.0825 7.47967 10.69 7.64335 10.4002 7.93311L3.33333 15" stroke="#9C9C9C" stroke-width="1.3" stroke-linecap="round" stroke-linejoin="round"/>
<path d="M9.55566 13.8336L11.889 11.5002M11.889 11.5002L14.2223 13.8336M11.889 11.5002V15.778" stroke="#9C9C9C" stroke-width="1.3" stroke-linecap="round" stroke-linejoin="round"/>
<path d="M5.66688 7.22244C6.52599 7.22244 7.22244 6.52599 7.22244 5.66688C7.22244 4.80777 6.52599 4.11133 5.66688 4.11133C4.80777 4.11133 4.11133 4.80777 4.11133 5.66688C4.11133 6.52599 4.80777 7.22244 5.66688 7.22244Z" stroke="#9C9C9C" stroke-width="1.3" stroke-linecap="round" stroke-linejoin="round"/>
</svg>
