<svg width="114" height="32" viewBox="0 0 114 32" fill="none" xmlns="http://www.w3.org/2000/svg">
<g clip-path="url(#clip0_452_591)">
<path d="M0 28.0336C0.30458 27.8623 0.565649 27.6052 0.783206 27.2624C1.00076 26.9196 1.11265 26.5095 1.11265 26.0382V25.5547C1.11265 24.8447 1.31778 24.3856 1.73424 24.1652C2.15071 23.951 2.59826 23.8408 3.07688 23.8408H10.7722V20.2295C10.7722 19.6909 10.9649 19.3236 11.3441 19.1155C11.7232 18.9074 12.1956 18.7483 12.7551 18.632C13.3145 18.5157 13.8926 18.3871 14.4893 18.2586C15.086 18.1301 15.6206 17.8852 16.0806 17.518V23.8408H24.4348C25.1745 23.8408 25.7401 23.749 26.1193 23.5654C26.4985 23.3818 26.8093 23.1737 27.0517 22.9349V24.6121C27.0517 25.6649 26.7968 26.4973 26.2809 27.1094C25.765 27.7215 24.9569 28.0275 23.8443 28.0275H0V28.0336ZM26.5606 15.8102C26.2312 16.8018 25.8147 17.5363 25.2988 18.0199C24.7829 18.5034 24.2545 18.834 23.7075 19.0176C23.1605 19.2012 22.6508 19.2624 22.166 19.2134C21.6874 19.1584 21.302 19.0788 21.0222 18.9686C20.239 18.6871 19.4621 18.3565 18.6975 17.9709C17.9329 17.5853 17.2243 17.1323 16.5716 16.6182C15.919 16.104 15.3285 15.5226 14.8063 14.8737C14.2842 14.231 13.8553 13.5088 13.5258 12.7131C13.2648 13.3986 12.9043 14.0474 12.4443 14.6473C11.9843 15.2471 11.4497 15.8041 10.8406 16.306C10.2314 16.8141 9.56009 17.267 8.84526 17.6771C8.12421 18.0872 7.39073 18.4422 6.65104 18.7421C5.25245 19.342 4.00927 19.3848 2.91527 18.8523C1.82127 18.3259 0.994547 17.3221 0.428899 15.8347C1.65344 15.7062 2.87176 15.394 4.07764 14.8982C5.28975 14.4024 6.38375 13.7475 7.35344 12.9334C8.32312 12.1193 9.11876 11.1461 9.72792 10.0138C10.3371 8.88751 10.6417 7.62048 10.6417 6.22492V5.64344C10.6417 5.1048 10.8592 4.73755 11.2943 4.52944C11.7294 4.32745 12.2516 4.16218 12.867 4.04589C13.4761 3.92959 14.1101 3.80105 14.769 3.67251C15.4217 3.54397 15.9811 3.29914 16.4411 2.93188V6.2188C16.4411 7.55315 16.7146 8.77121 17.2616 9.87909C17.8086 10.987 18.5483 11.948 19.4869 12.7682C20.4255 13.5884 21.5009 14.2494 22.713 14.7697C23.9251 15.29 25.2056 15.6327 26.5606 15.8041V15.8102Z" fill="#EA6844"/>
<path d="M44.4501 20.6519V23.2288C44.4501 23.7675 44.2574 24.1408 43.8782 24.3551C43.4928 24.5693 43.0266 24.7346 42.4672 24.8386C41.9078 24.9488 41.3297 25.0651 40.733 25.1936C40.13 25.3222 39.6017 25.5793 39.1417 25.9649V20.6458H28.2017C28.5062 20.4744 28.7673 20.2174 28.9849 19.8746C29.2024 19.5318 29.3143 19.1217 29.3143 18.6504V18.1669C29.3143 17.4568 29.5194 16.9978 29.9359 16.7774C30.3524 16.5632 30.7999 16.453 31.2785 16.453H52.6302C53.3699 16.453 53.9356 16.3612 54.3147 16.1776C54.6939 15.9939 55.0047 15.7858 55.2471 15.5471V17.2242C55.2471 18.277 54.9923 19.1095 54.4764 19.7216C53.9604 20.3337 53.1524 20.6397 52.0397 20.6397H44.4439L44.4501 20.6519ZM30.2405 31.6757C30.5699 31.3084 30.8061 30.8677 30.9615 30.3535C31.1169 29.8394 31.1915 29.2579 31.1915 28.6091V23.4186C31.1915 22.9656 31.2723 22.6412 31.4402 22.4331C31.608 22.225 31.925 22.1271 32.4036 22.1271H35.381C35.8845 22.1271 36.1953 22.2189 36.3134 22.4025C36.4315 22.5861 36.4937 22.8922 36.4937 23.3206V27.6114H50.0506C50.7717 27.6114 51.3249 27.5196 51.7041 27.3359C52.0832 27.1523 52.394 26.9442 52.6364 26.7055V28.2541C52.6364 29.3069 52.3816 30.1393 51.8657 30.7514C51.3498 31.3635 50.5479 31.6695 49.4601 31.6695H30.2343L30.2405 31.6757Z" fill="#EA6844"/>
<path d="M57.292 17.7444C57.6214 17.3772 57.8514 16.9365 57.9944 16.4223C58.1374 15.9082 58.2057 15.3267 58.2057 14.684V4.42539C58.2057 3.97245 58.2865 3.64804 58.4544 3.43993C58.616 3.23794 58.9392 3.13389 59.4178 3.13389H62.4326C62.9112 3.13389 63.2158 3.2257 63.3463 3.40933C63.4768 3.59295 63.5452 3.899 63.5452 4.32746V13.7108H73.6958C74.4355 13.7108 75.0012 13.619 75.3803 13.4353C75.7595 13.2517 76.0703 13.0314 76.3127 12.7743V3.85003C76.3127 3.48278 76.3811 3.17061 76.5241 2.90129C76.667 2.63197 76.9778 2.49731 77.4564 2.49731H82.4665C82.2241 2.6687 82.0251 2.90129 81.8635 3.18897C81.7019 3.47666 81.6149 3.91736 81.6149 4.49272V8.36112H86.3328C86.0282 8.51415 85.7671 8.75898 85.5496 9.10175C85.332 9.44452 85.2201 9.85462 85.2201 10.3259V10.938C85.2201 11.648 85.015 12.1132 84.5985 12.3275C84.1821 12.5417 83.7345 12.6519 83.2559 12.6519H81.6211V17.0711C81.6211 17.9709 81.2419 18.4239 80.4774 18.4239H77.4627C76.6981 18.4239 76.3189 17.9709 76.3189 17.0711V14.684C76.2754 15.6327 75.9895 16.3795 75.4674 16.9242C74.9452 17.4751 74.1558 17.7444 73.1115 17.7444H57.292ZM74.0874 21.1354C74.0874 20.7682 74.1558 20.456 74.2988 20.1867C74.4417 19.9174 74.7525 19.7827 75.2311 19.7827H80.2723C80.0298 19.9541 79.8247 20.1867 79.6507 20.4744C79.4766 20.762 79.3896 21.2027 79.3896 21.7781V22.1025C79.3896 23.7123 79.8682 25.0895 80.8317 26.228C81.7889 27.3665 83.231 28.3581 85.1518 29.1966C84.8037 29.9923 84.3748 30.5738 83.8713 30.935C83.3678 31.3022 82.8643 31.5287 82.3484 31.6266C81.8324 31.7246 81.36 31.7246 80.9249 31.6266C80.4898 31.5287 80.1604 31.4246 79.9428 31.3206C79.6134 31.1492 79.2839 30.9288 78.942 30.6595C78.6064 30.3902 78.2769 30.1086 77.9599 29.8026C77.6429 29.5027 77.3632 29.1905 77.127 28.8661C76.8846 28.5417 76.723 28.2295 76.6359 27.9296C76.4184 28.3581 76.1262 28.7804 75.7657 29.1905C75.4052 29.6006 75.0012 29.9801 74.5536 30.3351C74.1061 30.6901 73.6337 31.0145 73.1302 31.3022C72.6267 31.5899 72.1232 31.8225 71.6259 31.9939C71.1473 31.8409 70.6562 31.6205 70.1527 31.3328C69.6492 31.0451 69.1768 30.7146 68.7293 30.3474C68.2817 29.9801 67.8715 29.5945 67.4985 29.1844C67.1256 28.7743 66.8334 28.3581 66.6159 27.9235C66.504 28.1806 66.3424 28.4621 66.1248 28.762C65.9073 29.062 65.6524 29.3558 65.3727 29.6496C65.0868 29.9373 64.7946 30.2127 64.49 30.4698C64.1855 30.7268 63.8871 30.9288 63.6074 31.0819C63.3649 31.2104 63.0169 31.3451 62.5569 31.4858C62.0969 31.6266 61.5996 31.6695 61.0651 31.6144C60.5305 31.5593 59.9959 31.3634 59.4614 31.0206C58.9268 30.6779 58.473 30.0964 58.1001 29.2823C60.0208 28.4193 61.4567 27.4093 62.4077 26.2525C63.3587 25.0956 63.8311 23.7062 63.8311 22.0903V21.1232C63.8311 20.7559 63.8995 20.4438 64.0425 20.1744C64.1854 19.9051 64.4962 19.7705 64.9749 19.7705H70.016C69.7736 19.9418 69.5747 20.1744 69.413 20.4621C69.2514 20.7498 69.1644 21.1905 69.1644 21.7659V22.1515C69.1644 23.2471 69.3633 24.1591 69.7673 24.8936C70.1714 25.622 70.7868 26.2892 71.6197 26.8952C72.4278 26.2953 73.0369 25.6281 73.4534 24.8936C73.8699 24.1653 74.075 23.2471 74.075 22.1515V21.1171L74.0874 21.1354Z" fill="#EA6844"/>
<path d="M86.917 26.9687C87.2464 26.6015 87.4826 26.1608 87.638 25.6466C87.7934 25.1325 87.868 24.551 87.868 23.9083V5.07431C87.868 4.62137 87.9426 4.29696 88.098 4.08885C88.2534 3.88686 88.5766 3.7828 89.0801 3.7828H92.0576C92.5362 3.7828 92.8408 3.87462 92.9775 4.05825C93.1081 4.24187 93.1764 4.54792 93.1764 4.97638V22.9412H98.4475C99.0132 22.9412 99.5291 22.9167 99.9891 22.8616C100.449 22.8065 100.797 22.6963 101.04 22.525V23.59C101.04 24.6244 100.785 25.4446 100.269 26.0567C99.7529 26.6688 98.9448 26.9748 97.8322 26.9748H86.9294L86.917 26.9687ZM101.978 16.6183H96.4771C96.7382 16.4898 96.9744 16.2633 97.1795 15.9389C97.3846 15.6145 97.4903 15.2411 97.4903 14.8126V13.7476C97.4903 13.1049 97.683 12.6826 98.0621 12.4867C98.4413 12.2908 98.8391 12.199 99.2556 12.199H101.972V4.16842C101.972 3.80117 102.04 3.489 102.183 3.23193C102.326 2.97485 102.637 2.84631 103.116 2.84631H107.703C107.461 2.99933 107.255 3.21968 107.081 3.50737C106.907 3.79505 106.82 4.23575 106.82 4.81111V28.3827C106.82 29.2885 106.441 29.7354 105.677 29.7354H103.122C102.687 29.7354 102.388 29.6252 102.221 29.3987C102.059 29.1722 101.972 28.8356 101.972 28.3827V16.6122L101.978 16.6183ZM108.169 3.81341C108.169 3.44616 108.238 3.13399 108.381 2.86467C108.524 2.59535 108.834 2.46069 109.313 2.46069H113.994C113.751 2.63208 113.546 2.86467 113.372 3.15235C113.198 3.44004 113.111 3.88074 113.111 4.4561V28.9947C113.111 29.9006 112.732 30.3475 111.967 30.3475H109.313C108.878 30.3475 108.573 30.2373 108.412 30.0108C108.25 29.7843 108.169 29.4477 108.169 28.9947V3.81341Z" fill="#EA6844"/>
<path d="M50.5355 0.0142435L32.3799 2.17138C31.3336 2.2957 30.5877 3.23173 30.7139 4.26207L31.74 12.6359C31.8663 13.6662 32.8168 14.4007 33.8632 14.2764L52.0187 12.1193C53.065 11.9949 53.8109 11.0589 53.6847 10.0286L52.6586 1.65473C52.5323 0.624393 51.5818 -0.110076 50.5355 0.0142435Z" fill="#F19469"/>
<path d="M31.4026 8.94263C31.4026 8.94263 31.931 13.1293 28.9287 14.8432C28.9287 14.8432 32.0242 14.8738 36.1827 11.7215L31.4026 8.94263Z" fill="#F19469"/>
<path d="M46.1717 9.79342C44.1763 10.0321 42.2308 9.05891 41.2486 7.33282L40.6768 6.32288C40.2914 5.64346 40.7265 4.79878 41.5097 4.70696L49.5096 3.75823C50.3052 3.66641 50.9393 4.40704 50.7031 5.16603L50.3177 6.39633C49.7396 8.23871 48.1172 9.56695 46.1717 9.79954V9.79342Z" fill="black"/>
<path d="M43.5059 4.46826L45.6905 4.2087L45.8386 5.41799C45.9116 6.01351 45.4829 6.55151 44.8781 6.62336C44.2734 6.69522 43.727 6.27308 43.654 5.67755L43.5059 4.46826Z" fill="white"/>
<path d="M46.2988 4.13452L48.4834 3.87496L48.6316 5.08425C48.7046 5.67977 48.2759 6.21777 47.6711 6.28962C47.0663 6.36148 46.52 5.93933 46.447 5.34381L46.2988 4.13452Z" fill="white"/>
<path d="M43.822 3.20137C44.0588 3.20137 44.2509 3.01228 44.2509 2.77903C44.2509 2.54578 44.0588 2.35669 43.822 2.35669C43.5851 2.35669 43.3931 2.54578 43.3931 2.77903C43.3931 3.01228 43.5851 3.20137 43.822 3.20137Z" fill="black"/>
<path d="M47.2409 2.79732C47.4778 2.79732 47.6698 2.60823 47.6698 2.37498C47.6698 2.14173 47.4778 1.95264 47.2409 1.95264C47.004 1.95264 46.812 2.14173 46.812 2.37498C46.812 2.60823 47.004 2.79732 47.2409 2.79732Z" fill="black"/>
</g>
<defs>
<clipPath id="clip0_452_591">
<rect width="114" height="32" fill="white"/>
</clipPath>
</defs>
</svg>
